<svg version="1.1" id="Layer_1" xmlns="http://www.w3.org/2000/svg" xmlns:xlink="http://www.w3.org/1999/xlink" x="0px" y="0px"
	 width="100%" viewBox="0 0 1080 1080" enable-background="new 0 0 1080 1080" xml:space="preserve">
<path fill="#B77459" opacity="1.000000" stroke="none" 
	d="
M1.000000,1079.000000 
	C1.000000,719.734497 1.000000,360.468964 1.000000,1.000000 
	C360.030884,1.000000 719.061829,1.000000 1078.510132,1.252292 
	C1078.978149,1.666791 1079.028687,1.828998 1079.005615,2.445088 
	C1078.915039,4.564796 1078.883545,6.230622 1078.883545,7.896446 
	C1078.880981,361.277405 1078.880249,714.658325 1078.888428,1068.039307 
	C1078.888550,1070.699829 1079.011963,1073.360229 1078.942871,1076.329346 
	C1077.871948,1077.461182 1076.935913,1078.284302 1075.548706,1079.019531 
	C970.636475,1078.913818 866.175476,1078.884644 761.714417,1078.880371 
	C555.457092,1078.871948 349.199738,1078.869751 142.942383,1078.882446 
	C95.628258,1078.885376 48.314129,1078.958862 1.000000,1079.000000 
M867.791870,913.204651 
	C895.958923,906.889404 915.203491,881.160889 915.249329,852.143860 
	C915.458313,719.987488 915.271118,587.830566 915.388794,455.674011 
	C915.402527,440.272217 909.645264,426.917358 901.243103,414.876251 
	C888.970703,397.288696 870.641907,391.064484 849.881836,391.049988 
	C800.385864,391.015472 750.889954,391.083282 701.393982,391.097626 
	C692.074951,391.100342 690.740479,389.758118 690.744507,380.383270 
	C690.765686,331.553986 690.856689,282.724548 690.760437,233.895523 
	C690.748657,227.930878 690.181763,221.894028 689.151367,216.017029 
	C683.889709,186.007477 655.663269,166.526230 629.883545,166.485336 
	C497.727264,166.275681 365.570251,166.495300 233.414032,166.255615 
	C218.377823,166.228348 205.165344,171.227997 192.966797,178.651596 
	C174.066437,190.153671 166.590424,208.405304 166.553543,229.964066 
	C166.443771,294.125244 166.408417,358.286621 166.401779,422.447906 
	C166.396530,473.277130 166.509338,524.106323 166.500336,574.935547 
	C166.497299,592.054932 170.899445,607.589966 182.669037,620.432251 
	C196.044556,635.026733 213.235992,640.673950 232.527313,640.743164 
	C263.857544,640.855469 295.189056,640.871948 326.518738,640.697571 
	C334.321838,640.654114 341.213867,642.762085 347.811676,646.729187 
	C405.067810,681.155151 462.359711,715.521667 519.655396,749.881775 
	C521.215088,750.817017 522.870361,751.694336 524.594910,752.236206 
	C533.589111,755.062744 542.157410,747.681030 540.563293,738.384094 
	C540.120239,735.800415 539.058411,733.275024 537.983765,730.854675 
	C525.748474,703.297913 513.449646,675.769348 501.191406,648.222778 
	C500.336334,646.301208 499.668365,644.296326 498.670593,641.697937 
	C500.992004,641.504150 502.596344,641.255920 504.201050,641.253784 
	C522.699646,641.229797 541.200378,641.397644 559.695435,641.143311 
	C564.642761,641.075256 565.818115,642.802917 565.793518,647.482361 
	C565.621460,680.145691 565.693176,712.810425 565.716492,745.474670 
	C565.741699,780.805115 565.695740,816.136169 565.892944,851.465759 
	C565.972900,865.794373 569.430359,879.285767 578.581421,890.679871 
	C592.550842,908.073303 611.325195,915.057495 633.142151,915.082825 
	C698.969788,915.159424 764.797668,915.337769 830.625000,915.230042 
	C842.743164,915.210205 854.859436,914.036682 867.791870,913.204651 
z"/>
<path fill="#FEFCFA" opacity="1.000000" stroke="none" 
	d="
M1.000004,1079.500000 
	C48.314129,1078.958862 95.628258,1078.885376 142.942383,1078.882446 
	C349.199738,1078.869751 555.457092,1078.871948 761.714417,1078.880371 
	C866.175476,1078.884644 970.636475,1078.913818 1075.535156,1079.334961 
	C1075.981934,1080.158691 1075.990967,1080.579346 1076.000000,1081.000000 
	C719.166687,1081.000000 362.333405,1081.001221 5.500133,1080.958740 
	C4.000058,1080.958618 2.500050,1080.333252 1.000004,1079.500000 
z"/>
<path fill="#FFFAF9" opacity="1.000000" stroke="none" 
	d="
M1079.077759,1076.020752 
	C1079.011963,1073.360229 1078.888550,1070.699829 1078.888428,1068.039307 
	C1078.880249,714.658325 1078.880981,361.277405 1078.883545,7.896446 
	C1078.883545,6.230622 1078.915039,4.564796 1079.174683,2.295092 
	C1079.626465,1.473247 1079.820679,1.242843 1080.000000,0.999998 
	C1080.333374,1.166469 1080.943726,1.315523 1080.955566,1.502207 
	C1081.039062,2.829786 1081.000000,4.165057 1081.000000,5.497875 
	C1081.000000,362.359955 1081.000000,719.222046 1080.763062,1076.413086 
	C1080.043335,1076.501587 1079.560547,1076.261230 1079.077759,1076.020752 
z"/>
<path fill="#FFEBE6" opacity="1.000000" stroke="none" 
	d="
M1078.942871,1076.329346 
	C1079.560547,1076.261230 1080.043335,1076.501587 1080.763062,1076.871094 
	C1081.000000,1078.254883 1081.000000,1079.509888 1081.000000,1081.000000 
	C1079.669556,1081.000000 1078.334717,1081.000000 1076.500000,1081.000000 
	C1075.990967,1080.579346 1075.981934,1080.158691 1075.986328,1079.422729 
	C1076.935913,1078.284302 1077.871948,1077.461182 1078.942871,1076.329346 
z"/>
<path fill="#FFEBE6" opacity="1.000000" stroke="none" 
	d="
M1079.750000,1.000000 
	C1079.820679,1.242843 1079.626465,1.473247 1079.248413,1.841209 
	C1079.028687,1.828998 1078.978149,1.666791 1078.963745,1.252292 
	C1079.000000,1.000000 1079.500000,1.000000 1079.750000,1.000000 
z"/>
<path fill="#FDFBFA" opacity="1.000000" stroke="none" 
	d="
M867.384277,913.300171 
	C854.859436,914.036682 842.743164,915.210205 830.625000,915.230042 
	C764.797668,915.337769 698.969788,915.159424 633.142151,915.082825 
	C611.325195,915.057495 592.550842,908.073303 578.581421,890.679871 
	C569.430359,879.285767 565.972900,865.794373 565.892944,851.465759 
	C565.695740,816.136169 565.741699,780.805115 565.716492,745.474670 
	C565.693176,712.810425 565.621460,680.145691 565.793518,647.482361 
	C565.818115,642.802917 564.642761,641.075256 559.695435,641.143311 
	C541.200378,641.397644 522.699646,641.229797 504.201050,641.253784 
	C502.596344,641.255920 500.992004,641.504150 498.670593,641.697937 
	C499.668365,644.296326 500.336334,646.301208 501.191406,648.222778 
	C513.449646,675.769348 525.748474,703.297913 537.983765,730.854675 
	C539.058411,733.275024 540.120239,735.800415 540.563293,738.384094 
	C542.157410,747.681030 533.589111,755.062744 524.594910,752.236206 
	C522.870361,751.694336 521.215088,750.817017 519.655396,749.881775 
	C462.359711,715.521667 405.067810,681.155151 347.811676,646.729187 
	C341.213867,642.762085 334.321838,640.654114 326.518738,640.697571 
	C295.189056,640.871948 263.857544,640.855469 232.527313,640.743164 
	C213.235992,640.673950 196.044556,635.026733 182.669037,620.432251 
	C170.899445,607.589966 166.497299,592.054932 166.500336,574.935547 
	C166.509338,524.106323 166.396530,473.277130 166.401779,422.447906 
	C166.408417,358.286621 166.443771,294.125244 166.553543,229.964066 
	C166.590424,208.405304 174.066437,190.153671 192.966797,178.651596 
	C205.165344,171.227997 218.377823,166.228348 233.414032,166.255615 
	C365.570251,166.495300 497.727264,166.275681 629.883545,166.485336 
	C655.663269,166.526230 683.889709,186.007477 689.151367,216.017029 
	C690.181763,221.894028 690.748657,227.930878 690.760437,233.895523 
	C690.856689,282.724548 690.765686,331.553986 690.744507,380.383270 
	C690.740479,389.758118 692.074951,391.100342 701.393982,391.097626 
	C750.889954,391.083282 800.385864,391.015472 849.881836,391.049988 
	C870.641907,391.064484 888.970703,397.288696 901.243103,414.876251 
	C909.645264,426.917358 915.402527,440.272217 915.388794,455.674011 
	C915.271118,587.830566 915.458313,719.987488 915.249329,852.143860 
	C915.203491,881.160889 895.958923,906.889404 867.384277,913.300171 
M618.498779,191.471909 
	C491.671112,191.475891 364.843475,191.477264 238.015823,191.496948 
	C234.352020,191.497513 230.672958,191.513489 227.027008,191.825821 
	C207.522522,193.496704 194.741989,205.565781 192.126450,224.923462 
	C191.571396,229.031372 191.596634,233.236969 191.595596,237.397614 
	C191.568405,346.560394 191.568649,455.723145 191.585739,564.885925 
	C191.586548,570.049255 191.528595,575.233032 191.937576,580.372253 
	C193.446274,599.330566 204.904099,611.761963 223.698059,614.773132 
	C227.950180,615.454285 232.326111,615.569336 236.646378,615.585388 
	C268.311340,615.703369 299.976776,615.799683 331.641785,615.740906 
	C340.774628,615.723999 348.910889,618.300537 356.697876,622.996033 
	C398.074402,647.945801 439.534149,672.757690 480.995422,697.566650 
	C486.618805,700.931396 492.412811,704.011108 499.402740,707.939392 
	C498.487122,705.065918 498.179413,703.666565 497.611053,702.382568 
	C490.934540,687.300720 484.183929,672.251770 477.528137,657.160828 
	C474.033386,649.237000 470.265228,641.397034 467.381226,633.249939 
	C463.867676,623.324585 468.325928,616.916077 478.807526,615.887878 
	C481.949280,615.579651 485.133087,615.635620 488.297668,615.634399 
	C533.462769,615.616272 578.628235,615.730103 623.792786,615.570618 
	C650.923462,615.474854 665.489380,600.640076 665.508057,573.594727 
	C665.583252,464.765778 665.664795,355.936829 665.661682,247.107864 
	C665.661438,238.793045 665.773804,230.361694 664.511597,222.188705 
	C662.183350,207.113190 653.245850,197.061188 638.322388,193.361023 
	C632.263611,191.858795 625.784851,192.050659 618.498779,191.471909 
M835.695557,712.166809 
	C817.740845,740.012268 793.040955,757.860596 760.037231,763.718872 
	C695.167236,775.233582 648.281616,730.588867 634.869690,691.475464 
	C629.830261,676.779114 627.911987,661.650513 628.539673,646.206787 
	C628.702209,642.206543 627.554077,641.019287 623.574097,641.138000 
	C614.418213,641.411072 605.245422,641.368042 596.086121,641.160339 
	C592.372009,641.076172 591.211670,642.336731 591.218628,646.035522 
	C591.320740,700.352722 591.327698,754.670227 591.253906,808.987488 
	C591.248535,812.945862 591.845459,814.947021 596.634033,814.940369 
	C692.606018,814.807373 788.578308,814.821228 884.550415,814.919434 
	C888.765259,814.923706 889.920105,813.473938 889.916504,809.420959 
	C889.824280,705.451172 889.805969,601.481201 889.923706,497.511536 
	C889.929016,492.855103 888.501770,491.565704 883.972290,491.574005 
	C821.657288,491.687988 759.341919,491.678345 697.026917,491.562073 
	C692.740967,491.554077 691.203125,492.724579 691.270935,497.198120 
	C691.513550,513.189697 691.359863,529.187073 691.403503,545.182129 
	C691.408264,546.910217 691.722168,548.637512 691.896606,550.405884 
	C693.046631,550.298950 693.567688,550.342773 694.023499,550.190796 
	C695.444519,549.717285 696.847961,549.187744 698.245911,548.648132 
	C737.373413,533.544434 774.046509,538.705627 807.424255,563.525208 
	C855.046692,598.937073 866.479980,659.843689 835.695557,712.166809 
M681.083008,716.436707 
	C689.654419,722.090027 697.600647,729.221741 706.899780,733.154419 
	C762.953369,756.859863 824.290588,718.189514 827.273071,657.282043 
	C828.960144,622.828552 814.415100,595.896851 784.786743,578.489441 
	C756.045776,561.603516 726.313477,561.224731 696.911316,577.981812 
	C692.876160,580.281555 690.605042,583.431396 689.828247,588.159363 
	C686.862244,606.212830 677.629639,620.393738 662.256348,630.297791 
	C657.309326,633.484802 654.869019,637.591003 654.161133,643.255066 
	C650.567017,672.011475 660.199402,695.917419 681.083008,716.436707 
M843.500000,841.054321 
	C763.223389,841.054199 682.946716,841.055725 602.670105,841.052124 
	C590.080994,841.051575 590.081055,841.040527 591.232727,853.630066 
	C593.167786,874.782532 603.959961,886.341064 624.895386,889.378723 
	C629.157593,889.997192 633.522766,890.104675 637.840881,890.109619 
	C681.976318,890.160522 726.111755,890.151306 770.247253,890.138367 
	C796.728088,890.130554 823.212646,890.344360 849.688232,889.957947 
	C864.561829,889.740906 877.623718,885.038818 885.320190,870.988220 
	C889.617126,863.143677 890.258667,854.539368 890.092102,845.763428 
	C890.021362,842.035339 888.575500,840.936218 884.970581,840.980835 
	C871.482117,841.147766 857.990479,841.052246 843.500000,841.054321 
M889.012634,445.746552 
	C883.668823,426.894775 870.182739,416.567230 849.598755,416.027771 
	C840.118652,415.779358 830.621521,416.268768 821.132141,416.267303 
	C779.839172,416.260925 738.545837,416.257416 697.253601,416.067505 
	C692.766113,416.046875 691.127991,417.182648 691.248108,421.912506 
	C691.560852,434.226471 691.351013,446.553528 691.364502,458.875366 
	C691.371948,465.647522 691.385498,465.657837 698.212097,465.659027 
	C759.654846,465.669830 821.097534,465.676880 882.540283,465.683746 
	C883.705811,465.683868 884.876404,465.593750 886.035889,465.673492 
	C889.077332,465.882660 890.330322,464.327423 890.169922,461.482635 
	C889.889526,456.511139 889.525024,451.544373 889.012634,445.746552 
z"/>
<path fill="#B7755B" opacity="1.000000" stroke="none" 
	d="
M618.997986,191.471802 
	C625.784851,192.050659 632.263611,191.858795 638.322388,193.361023 
	C653.245850,197.061188 662.183350,207.113190 664.511597,222.188705 
	C665.773804,230.361694 665.661438,238.793045 665.661682,247.107864 
	C665.664795,355.936829 665.583252,464.765778 665.508057,573.594727 
	C665.489380,600.640076 650.923462,615.474854 623.792786,615.570618 
	C578.628235,615.730103 533.462769,615.616272 488.297668,615.634399 
	C485.133087,615.635620 481.949280,615.579651 478.807526,615.887878 
	C468.325928,616.916077 463.867676,623.324585 467.381226,633.249939 
	C470.265228,641.397034 474.033386,649.237000 477.528137,657.160828 
	C484.183929,672.251770 490.934540,687.300720 497.611053,702.382568 
	C498.179413,703.666565 498.487122,705.065918 499.402740,707.939392 
	C492.412811,704.011108 486.618805,700.931396 480.995422,697.566650 
	C439.534149,672.757690 398.074402,647.945801 356.697876,622.996033 
	C348.910889,618.300537 340.774628,615.723999 331.641785,615.740906 
	C299.976776,615.799683 268.311340,615.703369 236.646378,615.585388 
	C232.326111,615.569336 227.950180,615.454285 223.698059,614.773132 
	C204.904099,611.761963 193.446274,599.330566 191.937576,580.372253 
	C191.528595,575.233032 191.586548,570.049255 191.585739,564.885925 
	C191.568649,455.723145 191.568405,346.560394 191.595596,237.397614 
	C191.596634,233.236969 191.571396,229.031372 192.126450,224.923462 
	C194.741989,205.565781 207.522522,193.496704 227.027008,191.825821 
	C230.672958,191.513489 234.352020,191.497513 238.015823,191.496948 
	C364.843475,191.477264 491.671112,191.475891 618.997986,191.471802 
M285.186005,326.752258 
	C283.179840,337.527679 280.387054,348.228394 279.355225,359.096313 
	C277.873596,374.702423 282.233704,378.838989 297.894104,378.855927 
	C333.549683,378.894501 369.205322,378.879700 404.860931,378.873627 
	C457.344513,378.864685 509.828217,378.893677 562.311646,378.791809 
	C574.249573,378.768616 578.496399,374.124969 578.277466,362.222046 
	C577.988708,346.525757 574.924377,331.341461 568.413452,317.106354 
	C549.349304,275.425171 518.015930,249.638565 471.710846,243.729065 
	C444.648590,240.275360 417.548370,240.443161 390.411682,242.781586 
	C341.981506,246.954895 300.430603,279.877441 285.186005,326.752258 
M394.500061,503.229095 
	C362.173004,503.226318 329.845947,503.220123 297.518890,503.229736 
	C295.688873,503.230286 293.848022,503.257202 292.030731,503.448029 
	C282.808838,504.416443 279.005341,508.562592 279.185883,517.873291 
	C279.424500,530.180176 282.869049,541.595886 290.084198,551.602112 
	C303.279083,569.901245 321.755554,578.170105 343.884338,578.260376 
	C397.039276,578.477051 450.195587,578.427002 503.351105,578.336609 
	C511.325195,578.323059 519.437866,578.306763 527.246765,576.931030 
	C558.867310,571.360596 576.453735,546.901245 578.354126,517.553894 
	C578.858032,509.772614 575.483948,505.667755 567.871277,504.117920 
	C564.145996,503.359467 560.270020,503.033295 556.462341,503.034149 
	C502.808258,503.046417 449.154175,503.148743 394.500061,503.229095 
M456.625427,480.145538 
	C460.074219,477.005157 463.447937,473.777222 466.987457,470.742676 
	C474.270416,464.498840 482.243134,464.441010 489.632782,470.567413 
	C492.579926,473.010742 495.333374,475.686554 498.201874,478.226196 
	C517.255188,495.095306 538.224915,495.381378 557.751770,479.043152 
	C560.561584,476.692169 563.003906,473.551880 566.214355,472.092346 
	C577.792603,466.828644 579.577087,457.547913 578.325439,446.312805 
	C577.903809,442.528168 576.630310,441.434113 573.107605,441.673035 
	C564.420959,442.262054 557.111206,445.907288 550.576233,451.399597 
	C546.245178,455.039520 542.129089,458.970032 537.571228,462.297058 
	C530.503906,467.455872 525.841919,467.354767 518.936951,462.137817 
	C514.826233,459.032013 510.970520,455.576599 507.107758,452.156830 
	C489.852997,436.881042 466.629456,437.026276 449.529266,452.499908 
	C445.953949,455.735107 442.393799,459.053467 438.461884,461.813934 
	C430.973511,467.071320 425.198639,466.992584 417.809631,461.517883 
	C413.677277,458.456116 409.977325,454.804199 406.131195,451.363770 
	C391.891327,438.625824 372.099731,437.058929 356.319641,447.884857 
	C350.716278,451.728973 345.784576,456.544159 340.481964,460.836578 
	C332.235321,467.512238 325.164154,467.452942 317.119049,460.634338 
	C313.816223,457.834991 310.727966,454.780396 307.397278,452.016449 
	C300.480164,446.276276 292.871277,442.050690 283.636902,441.348022 
	C280.662659,441.121704 279.274109,441.974792 279.372162,445.120239 
	C279.512299,449.614777 279.612610,454.124878 279.391632,458.611633 
	C279.227448,461.944794 280.340576,464.156738 283.057098,466.176544 
	C289.064880,470.643524 294.834747,475.434265 300.643036,480.164948 
	C317.970062,494.277313 337.365326,494.726898 355.110199,481.215912 
	C359.342896,477.993042 363.193054,474.272736 367.312714,470.895355 
	C375.313782,464.335754 382.279968,464.419708 390.216370,471.132782 
	C392.758240,473.282837 395.189758,475.564636 397.647095,477.813141 
	C415.889282,494.505310 436.303864,495.474457 456.625427,480.145538 
M370.500031,403.817627 
	C366.835571,403.817627 363.171112,403.818665 359.506653,403.817535 
	C334.688568,403.809937 309.869995,403.875427 285.052826,403.720917 
	C280.963379,403.695496 279.324707,404.913391 279.632202,409.116547 
	C279.935211,413.258362 279.677002,417.439911 279.701111,421.603790 
	C279.738983,428.147888 279.751801,428.137726 286.348907,428.136993 
	C361.636047,428.128540 436.923187,428.124451 512.210327,428.116699 
	C532.531189,428.114624 552.852356,428.039215 573.172485,428.157745 
	C576.818176,428.179016 578.320801,427.023926 578.109924,423.285950 
	C577.875793,419.134827 578.042236,414.960815 578.044861,410.796753 
	C578.049194,403.841705 578.052734,403.820923 570.877808,403.820343 
	C504.418549,403.815002 437.959320,403.817413 370.500031,403.817627 
z"/>
<path fill="#B7765B" opacity="1.000000" stroke="none" 
	d="
M835.879517,711.853882 
	C866.479980,659.843689 855.046692,598.937073 807.424255,563.525208 
	C774.046509,538.705627 737.373413,533.544434 698.245911,548.648132 
	C696.847961,549.187744 695.444519,549.717285 694.023499,550.190796 
	C693.567688,550.342773 693.046631,550.298950 691.896606,550.405884 
	C691.722168,548.637512 691.408264,546.910217 691.403503,545.182129 
	C691.359863,529.187073 691.513550,513.189697 691.270935,497.198120 
	C691.203125,492.724579 692.740967,491.554077 697.026917,491.562073 
	C759.341919,491.678345 821.657288,491.687988 883.972290,491.574005 
	C888.501770,491.565704 889.929016,492.855103 889.923706,497.511536 
	C889.805969,601.481201 889.824280,705.451172 889.916504,809.420959 
	C889.920105,813.473938 888.765259,814.923706 884.550415,814.919434 
	C788.578308,814.821228 692.606018,814.807373 596.634033,814.940369 
	C591.845459,814.947021 591.248535,812.945862 591.253906,808.987488 
	C591.327698,754.670227 591.320740,700.352722 591.218628,646.035522 
	C591.211670,642.336731 592.372009,641.076172 596.086121,641.160339 
	C605.245422,641.368042 614.418213,641.411072 623.574097,641.138000 
	C627.554077,641.019287 628.702209,642.206543 628.539673,646.206787 
	C627.911987,661.650513 629.830261,676.779114 634.869690,691.475464 
	C648.281616,730.588867 695.167236,775.233582 760.037231,763.718872 
	C793.040955,757.860596 817.740845,740.012268 835.879517,711.853882 
z"/>
<path fill="#B7765B" opacity="1.000000" stroke="none" 
	d="
M680.823181,716.192566 
	C660.199402,695.917419 650.567017,672.011475 654.161133,643.255066 
	C654.869019,637.591003 657.309326,633.484802 662.256348,630.297791 
	C677.629639,620.393738 686.862244,606.212830 689.828247,588.159363 
	C690.605042,583.431396 692.876160,580.281555 696.911316,577.981812 
	C726.313477,561.224731 756.045776,561.603516 784.786743,578.489441 
	C814.415100,595.896851 828.960144,622.828552 827.273071,657.282043 
	C824.290588,718.189514 762.953369,756.859863 706.899780,733.154419 
	C697.600647,729.221741 689.654419,722.090027 680.823181,716.192566 
M787.192627,636.695129 
	C789.432190,634.457397 791.538025,632.062195 793.944275,630.020935 
	C797.129333,627.318909 797.606628,625.013367 794.301208,621.890564 
	C790.556274,618.352600 787.083252,614.485352 783.817017,610.495239 
	C781.133972,607.217468 779.231812,607.395935 776.310425,610.382874 
	C761.749329,625.270447 746.996704,639.970825 732.284302,654.709961 
	C730.573120,656.424255 728.693542,657.970337 726.692322,659.774536 
	C721.813782,654.582153 717.312927,649.791748 712.458618,644.625244 
	C706.832581,650.355713 701.595276,655.460876 696.730530,660.899475 
	C696.024048,661.689331 696.503845,664.650208 697.448059,665.627930 
	C703.926514,672.337158 710.594788,678.870178 717.357971,685.295593 
	C725.018555,692.573669 730.803223,692.498901 738.680481,685.307129 
	C739.664673,684.408508 740.638855,683.496582 741.578613,682.551941 
	C756.617188,667.434692 771.649414,652.311096 787.192627,636.695129 
z"/>
<path fill="#B7765B" opacity="1.000000" stroke="none" 
	d="
M844.000000,841.054749 
	C857.990479,841.052246 871.482117,841.147766 884.970581,840.980835 
	C888.575500,840.936218 890.021362,842.035339 890.092102,845.763428 
	C890.258667,854.539368 889.617126,863.143677 885.320190,870.988220 
	C877.623718,885.038818 864.561829,889.740906 849.688232,889.957947 
	C823.212646,890.344360 796.728088,890.130554 770.247253,890.138367 
	C726.111755,890.151306 681.976318,890.160522 637.840881,890.109619 
	C633.522766,890.104675 629.157593,889.997192 624.895386,889.378723 
	C603.959961,886.341064 593.167786,874.782532 591.232727,853.630066 
	C590.081055,841.040527 590.080994,841.051575 602.670105,841.052124 
	C682.946716,841.055725 763.223389,841.054199 844.000000,841.054749 
z"/>
<path fill="#B8775D" opacity="1.000000" stroke="none" 
	d="
M889.104187,446.161072 
	C889.525024,451.544373 889.889526,456.511139 890.169922,461.482635 
	C890.330322,464.327423 889.077332,465.882660 886.035889,465.673492 
	C884.876404,465.593750 883.705811,465.683868 882.540283,465.683746 
	C821.097534,465.676880 759.654846,465.669830 698.212097,465.659027 
	C691.385498,465.657837 691.371948,465.647522 691.364502,458.875366 
	C691.351013,446.553528 691.560852,434.226471 691.248108,421.912506 
	C691.127991,417.182648 692.766113,416.046875 697.253601,416.067505 
	C738.545837,416.257416 779.839172,416.260925 821.132141,416.267303 
	C830.621521,416.268768 840.118652,415.779358 849.598755,416.027771 
	C870.182739,416.567230 883.668823,426.894775 889.104187,446.161072 
z"/>
<path fill="#FDFBF9" opacity="1.000000" stroke="none" 
	d="
M285.335449,326.386108 
	C300.430603,279.877441 341.981506,246.954895 390.411682,242.781586 
	C417.548370,240.443161 444.648590,240.275360 471.710846,243.729065 
	C518.015930,249.638565 549.349304,275.425171 568.413452,317.106354 
	C574.924377,331.341461 577.988708,346.525757 578.277466,362.222046 
	C578.496399,374.124969 574.249573,378.768616 562.311646,378.791809 
	C509.828217,378.893677 457.344513,378.864685 404.860931,378.873627 
	C369.205322,378.879700 333.549683,378.894501 297.894104,378.855927 
	C282.233704,378.838989 277.873596,374.702423 279.355225,359.096313 
	C280.387054,348.228394 283.179840,337.527679 285.335449,326.386108 
M306.766815,353.017914 
	C307.920349,353.135254 309.073914,353.355103 310.227448,353.355255 
	C389.020721,353.366394 467.814026,353.362274 546.607300,353.337677 
	C548.208130,353.337158 549.808899,353.079681 551.713135,352.915985 
	C551.568909,351.107819 551.636108,349.772034 551.333130,348.526337 
	C549.957336,342.870483 549.061157,337.009613 546.941345,331.637299 
	C531.609253,292.781036 503.582428,270.484344 461.340302,268.189758 
	C441.241425,267.097992 421.058075,267.495819 400.912079,267.381042 
	C395.605927,267.350800 390.146179,267.227509 385.012848,268.334045 
	C353.389709,275.150696 329.746765,292.912903 314.615173,321.506561 
	C309.563080,331.053375 305.734772,341.227081 306.766815,353.017914 
z"/>
<path fill="#FDFBF9" opacity="1.000000" stroke="none" 
	d="
M395.000061,503.229156 
	C449.154175,503.148743 502.808258,503.046417 556.462341,503.034149 
	C560.270020,503.033295 564.145996,503.359467 567.871277,504.117920 
	C575.483948,505.667755 578.858032,509.772614 578.354126,517.553894 
	C576.453735,546.901245 558.867310,571.360596 527.246765,576.931030 
	C519.437866,578.306763 511.325195,578.323059 503.351105,578.336609 
	C450.195587,578.427002 397.039276,578.477051 343.884338,578.260376 
	C321.755554,578.170105 303.279083,569.901245 290.084198,551.602112 
	C282.869049,541.595886 279.424500,530.180176 279.185883,517.873291 
	C279.005341,508.562592 282.808838,504.416443 292.030731,503.448029 
	C293.848022,503.257202 295.688873,503.230286 297.518890,503.229736 
	C329.845947,503.220123 362.173004,503.226318 395.000061,503.229156 
M319.525146,528.768372 
	C315.591003,528.768372 311.656891,528.768372 306.263062,528.768372 
	C308.505737,532.694824 309.813263,535.712158 311.749695,538.249512 
	C320.498688,549.712891 332.673218,553.384155 346.531799,553.357544 
	C401.496918,553.251953 456.462250,553.245117 511.427460,553.177551 
	C514.255676,553.174072 517.094177,553.062561 519.909790,552.803955 
	C529.681213,551.906677 537.826355,547.667236 543.965088,540.076599 
	C546.352417,537.124634 547.833435,533.439758 550.473572,528.768311 
	C472.622101,528.768311 396.569946,528.768311 319.525146,528.768372 
z"/>
<path fill="#FDFBF9" opacity="1.000000" stroke="none" 
	d="
M456.342987,480.361389 
	C436.303864,495.474457 415.889282,494.505310 397.647095,477.813141 
	C395.189758,475.564636 392.758240,473.282837 390.216370,471.132782 
	C382.279968,464.419708 375.313782,464.335754 367.312714,470.895355 
	C363.193054,474.272736 359.342896,477.993042 355.110199,481.215912 
	C337.365326,494.726898 317.970062,494.277313 300.643036,480.164948 
	C294.834747,475.434265 289.064880,470.643524 283.057098,466.176544 
	C280.340576,464.156738 279.227448,461.944794 279.391632,458.611633 
	C279.612610,454.124878 279.512299,449.614777 279.372162,445.120239 
	C279.274109,441.974792 280.662659,441.121704 283.636902,441.348022 
	C292.871277,442.050690 300.480164,446.276276 307.397278,452.016449 
	C310.727966,454.780396 313.816223,457.834991 317.119049,460.634338 
	C325.164154,467.452942 332.235321,467.512238 340.481964,460.836578 
	C345.784576,456.544159 350.716278,451.728973 356.319641,447.884857 
	C372.099731,437.058929 391.891327,438.625824 406.131195,451.363770 
	C409.977325,454.804199 413.677277,458.456116 417.809631,461.517883 
	C425.198639,466.992584 430.973511,467.071320 438.461884,461.813934 
	C442.393799,459.053467 445.953949,455.735107 449.529266,452.499908 
	C466.629456,437.026276 489.852997,436.881042 507.107758,452.156830 
	C510.970520,455.576599 514.826233,459.032013 518.936951,462.137817 
	C525.841919,467.354767 530.503906,467.455872 537.571228,462.297058 
	C542.129089,458.970032 546.245178,455.039520 550.576233,451.399597 
	C557.111206,445.907288 564.420959,442.262054 573.107605,441.673035 
	C576.630310,441.434113 577.903809,442.528168 578.325439,446.312805 
	C579.577087,457.547913 577.792603,466.828644 566.214355,472.092346 
	C563.003906,473.551880 560.561584,476.692169 557.751770,479.043152 
	C538.224915,495.381378 517.255188,495.095306 498.201874,478.226196 
	C495.333374,475.686554 492.579926,473.010742 489.632782,470.567413 
	C482.243134,464.441010 474.270416,464.498840 466.987457,470.742676 
	C463.447937,473.777222 460.074219,477.005157 456.342987,480.361389 
z"/>
<path fill="#FEFCFA" opacity="1.000000" stroke="none" 
	d="
M371.000061,403.817596 
	C437.959320,403.817413 504.418549,403.815002 570.877808,403.820343 
	C578.052734,403.820923 578.049194,403.841705 578.044861,410.796753 
	C578.042236,414.960815 577.875793,419.134827 578.109924,423.285950 
	C578.320801,427.023926 576.818176,428.179016 573.172485,428.157745 
	C552.852356,428.039215 532.531189,428.114624 512.210327,428.116699 
	C436.923187,428.124451 361.636047,428.128540 286.348907,428.136993 
	C279.751801,428.137726 279.738983,428.147888 279.701111,421.603790 
	C279.677002,417.439911 279.935211,413.258362 279.632202,409.116547 
	C279.324707,404.913391 280.963379,403.695496 285.052826,403.720917 
	C309.869995,403.875427 334.688568,403.809937 359.506653,403.817535 
	C363.171112,403.818665 366.835571,403.817627 371.000061,403.817596 
z"/>
<path fill="#FDFAF8" opacity="1.000000" stroke="none" 
	d="
M786.937866,636.942017 
	C771.649414,652.311096 756.617188,667.434692 741.578613,682.551941 
	C740.638855,683.496582 739.664673,684.408508 738.680481,685.307129 
	C730.803223,692.498901 725.018555,692.573669 717.357971,685.295593 
	C710.594788,678.870178 703.926514,672.337158 697.448059,665.627930 
	C696.503845,664.650208 696.024048,661.689331 696.730530,660.899475 
	C701.595276,655.460876 706.832581,650.355713 712.458618,644.625244 
	C717.312927,649.791748 721.813782,654.582153 726.692322,659.774536 
	C728.693542,657.970337 730.573120,656.424255 732.284302,654.709961 
	C746.996704,639.970825 761.749329,625.270447 776.310425,610.382874 
	C779.231812,607.395935 781.133972,607.217468 783.817017,610.495239 
	C787.083252,614.485352 790.556274,618.352600 794.301208,621.890564 
	C797.606628,625.013367 797.129333,627.318909 793.944275,630.020935 
	C791.538025,632.062195 789.432190,634.457397 786.937866,636.942017 
z"/>
<path fill="#B7755B" opacity="1.000000" stroke="none" 
	d="
M306.405273,352.709106 
	C305.734772,341.227081 309.563080,331.053375 314.615173,321.506561 
	C329.746765,292.912903 353.389709,275.150696 385.012848,268.334045 
	C390.146179,267.227509 395.605927,267.350800 400.912079,267.381042 
	C421.058075,267.495819 441.241425,267.097992 461.340302,268.189758 
	C503.582428,270.484344 531.609253,292.781036 546.941345,331.637299 
	C549.061157,337.009613 549.957336,342.870483 551.333130,348.526337 
	C551.636108,349.772034 551.568909,351.107819 551.713135,352.915985 
	C549.808899,353.079681 548.208130,353.337158 546.607300,353.337677 
	C467.814026,353.362274 389.020721,353.366394 310.227448,353.355255 
	C309.073914,353.355103 307.920349,353.135254 306.405273,352.709106 
M366.477844,322.343323 
	C366.474060,324.868622 364.331116,328.299469 370.103088,328.742889 
	C374.731964,328.753540 379.360840,328.764221 384.613312,329.069397 
	C391.189209,329.418915 391.538696,329.139221 391.609222,322.820587 
	C391.661224,318.161224 391.721802,313.495758 391.526947,308.843567 
	C391.468567,307.449341 390.563293,306.090546 389.257355,304.578308 
	C387.926544,304.516846 386.595734,304.455414 384.650665,303.997833 
	C379.701111,303.886047 374.748169,303.643066 369.804871,303.771576 
	C368.798370,303.797729 367.828217,305.221649 366.853668,306.933990 
	C366.847412,311.923126 366.841187,316.912231 366.477844,322.343323 
M416.333496,323.182587 
	C415.905579,327.111359 417.238861,329.049103 421.611786,328.762329 
	C426.590118,328.435791 431.610504,328.562103 436.604523,328.730682 
	C439.907715,328.842194 441.009613,327.473175 440.899292,324.280182 
	C440.720947,319.119812 440.687469,313.942413 440.900757,308.784943 
	C441.036316,305.506531 439.776062,304.256073 436.585663,304.324280 
	C431.254883,304.438263 425.915283,304.516968 420.589111,304.331238 
	C417.248779,304.214691 416.209045,305.596252 416.327118,308.758514 
	C416.494873,313.251556 416.348053,317.756287 416.333496,323.182587 
M466.341187,323.141876 
	C465.820251,327.160156 467.396454,328.855042 471.609131,328.609650 
	C476.734650,328.311096 481.889496,328.486847 487.031403,328.512085 
	C489.663879,328.524994 490.994019,327.495270 490.938904,324.668030 
	C490.829010,319.030396 491.113098,313.375031 490.735657,307.760498 
	C490.651367,306.506348 488.569031,304.452118 487.304657,304.371826 
	C481.522369,304.004700 475.690765,304.002930 469.908600,304.370209 
	C468.655823,304.449829 466.625916,306.513031 466.514099,307.798340 
	C466.098724,312.573364 466.334320,317.404999 466.341187,323.141876 
z"/>
<path fill="#B7765C" opacity="1.000000" stroke="none" 
	d="
M320.021484,528.768311 
	C396.569946,528.768311 472.622101,528.768311 550.473572,528.768311 
	C547.833435,533.439758 546.352417,537.124634 543.965088,540.076599 
	C537.826355,547.667236 529.681213,551.906677 519.909790,552.803955 
	C517.094177,553.062561 514.255676,553.174072 511.427460,553.177551 
	C456.462250,553.245117 401.496918,553.251953 346.531799,553.357544 
	C332.673218,553.384155 320.498688,549.712891 311.749695,538.249512 
	C309.813263,535.712158 308.505737,532.694824 306.263062,528.768372 
	C311.656891,528.768372 315.591003,528.768372 320.021484,528.768311 
z"/>
<path fill="#FBF4F1" opacity="1.000000" stroke="none" 
	d="
M416.334595,322.719299 
	C416.348053,317.756287 416.494873,313.251556 416.327118,308.758514 
	C416.209045,305.596252 417.248779,304.214691 420.589111,304.331238 
	C425.915283,304.516968 431.254883,304.438263 436.585663,304.324280 
	C439.776062,304.256073 441.036316,305.506531 440.900757,308.784943 
	C440.687469,313.942413 440.720947,319.119812 440.899292,324.280182 
	C441.009613,327.473175 439.907715,328.842194 436.604523,328.730682 
	C431.610504,328.562103 426.590118,328.435791 421.611786,328.762329 
	C417.238861,329.049103 415.905579,327.111359 416.334595,322.719299 
z"/>
<path fill="#FBF4F1" opacity="1.000000" stroke="none" 
	d="
M466.333344,322.678650 
	C466.334320,317.404999 466.098724,312.573364 466.514099,307.798340 
	C466.625916,306.513031 468.655823,304.449829 469.908600,304.370209 
	C475.690765,304.002930 481.522369,304.004700 487.304657,304.371826 
	C488.569031,304.452118 490.651367,306.506348 490.735657,307.760498 
	C491.113098,313.375031 490.829010,319.030396 490.938904,324.668030 
	C490.994019,327.495270 489.663879,328.524994 487.031403,328.512085 
	C481.889496,328.486847 476.734650,328.311096 471.609131,328.609650 
	C467.396454,328.855042 465.820251,327.160156 466.333344,322.678650 
z"/>
<path fill="#FEFCFA" opacity="1.000000" stroke="none" 
	d="
M385.264923,304.393982 
	C386.595734,304.455414 387.926544,304.516846 389.698486,305.131775 
	C390.162872,310.817047 389.872559,315.975037 390.299072,321.073059 
	C390.712616,326.016510 388.953796,328.546936 383.989716,328.774902 
	C379.360840,328.764221 374.731964,328.753540 369.420380,328.466187 
	C368.103424,326.093475 367.469177,323.997406 366.834930,321.901367 
	C366.841187,316.912231 366.847412,311.923126 367.191956,306.203308 
	C373.441833,305.113098 379.353363,304.753540 385.264923,304.393982 
z"/>
<path fill="#D6B2A2" opacity="1.000000" stroke="none" 
	d="
M384.301514,328.922150 
	C388.953796,328.546936 390.712616,326.016510 390.299072,321.073059 
	C389.872559,315.975037 390.162872,310.817047 390.092773,305.200378 
	C390.563293,306.090546 391.468567,307.449341 391.526947,308.843567 
	C391.721802,313.495758 391.661224,318.161224 391.609222,322.820587 
	C391.538696,329.139221 391.189209,329.418915 384.301514,328.922150 
z"/>
<path fill="#D6B2A2" opacity="1.000000" stroke="none" 
	d="
M384.957794,304.195923 
	C379.353363,304.753540 373.441833,305.113098 367.185791,305.736938 
	C367.828217,305.221649 368.798370,303.797729 369.804871,303.771576 
	C374.748169,303.643066 379.701111,303.886047 384.957794,304.195923 
z"/>
<path fill="#D6B2A2" opacity="1.000000" stroke="none" 
	d="
M366.656372,322.122345 
	C367.469177,323.997406 368.103424,326.093475 368.966736,328.476685 
	C364.331116,328.299469 366.474060,324.868622 366.656372,322.122345 
z"/>
</svg>